<svg xmlns="http://www.w3.org/2000/svg" viewBox="0 0 342 513" role="img" aria-label="Edge of Tomorrow poster concept">
  <defs>
    <linearGradient id="bg" x1="0" y1="0" x2="0" y2="1">
      <stop offset="0%" stop-color="#718196" />
      <stop offset="42%" stop-color="#18263d" />
      <stop offset="100%" stop-color="#05070d" />
    </linearGradient>
    <radialGradient id="blast" cx="50%" cy="36%" r="56%">
      <stop offset="0%" stop-color="#ffbb72" stop-opacity="0.9" />
      <stop offset="48%" stop-color="#5ec8ff" stop-opacity="0.26" />
      <stop offset="100%" stop-color="#05070d" stop-opacity="0" />
    </radialGradient>
    <linearGradient id="metal" x1="0" y1="0" x2="1" y2="1">
      <stop offset="0%" stop-color="#f0f8ff" />
      <stop offset="100%" stop-color="#536277" />
    </linearGradient>
  </defs>
  <rect width="342" height="513" rx="26" fill="url(#bg)" />
  <rect width="342" height="513" rx="26" fill="url(#blast)" />
  <rect x="18" y="18" width="306" height="477" rx="22" fill="none" stroke="#d9efff" stroke-opacity="0.22" />
  <text x="171" y="58" fill="#eef8ff" font-family="Arial, Helvetica, sans-serif" font-size="16" font-weight="700" letter-spacing="4" text-anchor="middle">LIVE · DIE · REPEAT</text>
  <text x="171" y="104" fill="#ffffff" font-family="Arial, Helvetica, sans-serif" font-size="31" font-weight="800" letter-spacing="5" text-anchor="middle">EDGE OF</text>
  <text x="171" y="140" fill="#ffffff" font-family="Arial, Helvetica, sans-serif" font-size="31" font-weight="800" letter-spacing="5" text-anchor="middle">TOMORROW</text>
  <g transform="translate(171 285)">
    <circle r="122" fill="none" stroke="#8ddfff" stroke-opacity="0.28" stroke-width="6" />
    <circle r="92" fill="none" stroke="#ffb26a" stroke-opacity="0.24" stroke-width="4" stroke-dasharray="18 12" />
    <path d="M-42 92 L-24-8 L-7-60 L12-60 L28-8 L46 92 Z" fill="#111822" stroke="#9cc9e8" stroke-opacity="0.34" />
    <circle cy="-82" r="24" fill="#1b2430" stroke="#d8ecff" stroke-opacity="0.5" />
    <path d="M-92 48 L-28-6 M92 48 L28-6 M-72-18 L-28-30 M72-18 L28-30" stroke="url(#metal)" stroke-width="10" stroke-linecap="round" />
    <path d="M-114 92 C-62 54 63 54 114 92 Z" fill="#ff9a52" opacity="0.28" />
  </g>
  <rect x="44" y="414" width="254" height="42" rx="16" fill="#07101b" opacity="0.74" />
  <text x="171" y="441" fill="#cfeeff" font-family="Arial, Helvetica, sans-serif" font-size="15" font-weight="700" letter-spacing="2" text-anchor="middle">ACTION · SCI-FI · ADVENTURE</text>
</svg>
